<?xml version="1.0" encoding="utf-8"?>
<!-- Generator: Adobe Illustrator 23.0.3, SVG Export Plug-In . SVG Version: 6.00 Build 0)  -->
<svg version="1.1" id="Layer_1" xmlns="http://www.w3.org/2000/svg" xmlns:xlink="http://www.w3.org/1999/xlink" x="0px" y="0px"
	 viewBox="0 0 30.9 27.7" style="enable-background:new 0 0 30.9 27.7;" xml:space="preserve">
<style type="text/css">
	.st1{fill:#25A954;stroke:#25A954;stroke-width:0.75;stroke-miterlimit:10;}
</style>
<title>32</title>
<path class="st1" d="M8.9,24.1L8.9,24.1l1.2-1.2c-0.3-0.1-1.2-0.7-1.4-0.8l-1.3,1.2L8.9,24.1z"/>
<path class="st1" d="M11.4,23.5l-1.3,1.3c0.6,0.3,1.2,0.5,1.8,0.8l1.2-1.2C12.1,23.9,12,23.8,11.4,23.5z"/>
<path class="st1" d="M23.9,3.2c-1.8-1.3-4-1.9-6.2-2.1c-1.1-0.1-2.2,0-3.3,0.2c-1.2,0.2-2.2,0.6-3.3,1.1c-1,0.6-1.8,1.3-2.7,2
	S6.8,5.9,6.2,6.8s-1.1,1.9-1.5,3s-0.6,2.2-0.6,3.4l-1.5-3.1l-1.5,0.7L4,16.5l5.7-2.8L9,12.3L5.7,14C5.6,8.6,9.5,3.9,14.8,2.9
	c2.9-0.5,5.8,0.1,8.3,1.6c0.8,0.6,1.5,1.2,2.2,1.9c2,2.2,3,5.2,2.8,8.2c-0.2,2.9-1.5,5.6-3.7,7.5c-0.8,0.7-1.5,1.3-2.5,1.6
	c-1.1,0.6-2.3,0.9-3.5,1.1c-1.2,0.2-2.8,0-4-0.2l0,0L13.2,26c0.5,0.2,1,0.3,1.5,0.4c3.9,0.8,7.9-0.3,10.9-3c2.5-2.2,4.1-5.3,4.3-8.6
	c0.1-1.1,0-2.2-0.2-3.3c-0.5-2.2-1.5-4.4-3-6.1C25.7,4.5,24.9,3.8,23.9,3.2z"/>
</svg>
