<?xml version="1.0" encoding="utf-8"?>
<!-- Generator: Adobe Illustrator 23.0.3, SVG Export Plug-In . SVG Version: 6.00 Build 0)  -->
<svg version="1.1" id="Layer_1" xmlns="http://www.w3.org/2000/svg" xmlns:xlink="http://www.w3.org/1999/xlink" x="0px" y="0px"
	 viewBox="0 0 32 32" style="enable-background:new 0 0 32 32;" xml:space="preserve">
<style type="text/css">
	.st0{fill:#F15B2A;stroke:#F15B2A;stroke-width:2;stroke-miterlimit:10;}
	.st1{fill:#3A3B3A;}
	.st2{fill:#F15A29;}
</style>
<title>32</title>
<path class="st0" d="M24.4,19l-6.5-4.2v-5c0-0.2-0.2-0.3-0.4-0.3s-0.4,0.1-0.4,0.3v5.4c0,0.1,0.1,0.2,0.2,0.2l0,0l6.7,4.3
	c0.2,0.2,0.4,0.1,0.5-0.1l0,0C24.7,19.5,24.6,19.3,24.4,19z"/>
<path class="st1" d="M10.2,27.8l1.4-1.3c-0.4-0.2-0.7-0.4-1.2-0.7c-0.2-0.1-0.3-0.2-0.5-0.3l-1.4,1.3"/>
<path class="st1" d="M12.1,26.8L10.7,28c0.6,0.3,1.3,0.6,1.9,0.8l1.6-1.4C13.5,27.3,12.8,27,12.1,26.8z"/>
<path class="st2" d="M25.4,3.8c-2-1.3-4.4-2.1-6.8-2.3c-1.2-0.1-2.4,0-3.7,0.2c-1.2,0.2-2.5,0.7-3.6,1.2c-1.1,0.6-2.2,1.3-3.1,2.2
	c-1,0.8-1.8,1.7-2.5,2.8c-0.7,1-1.2,2.2-1.6,3.4S3.5,13.8,3.4,15l-1.7-3.4l-1.6,0.8l3.1,6.3l6.3-3.1L8.7,14L5,15.8
	c0-2.3,0.6-4.6,1.8-6.6c1.8-3,4.8-5,8.2-5.7c3.2-0.6,6.4,0.1,9.1,1.8c0.9,0.6,1.7,1.3,2.4,2.1c1.5,1.7,2.5,3.7,2.9,5.9
	c0.2,1.1,0.3,2.1,0.2,3.2c-0.1,1.1-0.3,2.1-0.6,3.1c-0.7,2-1.9,3.8-3.5,5.3c-0.8,0.7-1.8,1.4-2.8,1.8c-1.2,0.6-2.5,1-3.9,1.2
	c-1.3,0.2-2.7,0.1-4-0.1c-0.1,0-0.3-0.1-0.4-0.1L12.9,29c0.5,0.2,1,0.3,1.6,0.4c1.5,0.3,3,0.4,4.5,0.2c2.8-0.4,5.4-1.6,7.6-3.4
	c1.8-1.6,3.2-3.7,4-6c0.4-1.1,0.6-2.3,0.7-3.5s0-2.5-0.2-3.7c-0.2-2.6-1.3-5-3-6.9C27.3,5.3,26.4,4.5,25.4,3.8z"/>
<path class="st1" d="M25.4,3.8c-2-1.3-4.4-2.1-6.8-2.3c-1.2-0.1-2.4,0-3.7,0.2c-1.2,0.2-2.5,0.7-3.6,1.2c-1.1,0.6-2.2,1.3-3.1,2.2
	c-1,0.8-1.8,1.7-2.5,2.8c-0.7,1-1.2,2.2-1.6,3.4S3.5,13.8,3.4,15l-1.7-3.4l-1.6,0.8l3.1,6.3l6.3-3.1L8.7,14L5,15.8
	c0-2.3,0.6-4.6,1.8-6.6c1.8-3,4.8-5,8.2-5.7c3.2-0.6,6.4,0.1,9.1,1.8c0.9,0.6,1.7,1.3,2.4,2.1c1.5,1.7,2.5,3.7,2.9,5.9
	c0.2,1.1,0.3,2.1,0.2,3.2c-0.1,1.1-0.3,2.1-0.6,3.1c-0.7,2-1.9,3.8-3.5,5.3c-0.8,0.7-1.8,1.4-2.8,1.8c-1.2,0.6-2.5,1-3.9,1.2
	c-1.3,0.2-2.7,0.1-4-0.1c-0.1,0-0.3-0.1-0.4-0.1L12.9,29c0.5,0.2,1,0.3,1.6,0.4c1.5,0.3,3,0.4,4.5,0.2c2.8-0.4,5.4-1.6,7.6-3.4
	c1.8-1.6,3.2-3.7,4-6c0.4-1.1,0.6-2.3,0.7-3.5s0-2.5-0.2-3.7c-0.2-2.6-1.3-5-3-6.9C27.3,5.3,26.4,4.5,25.4,3.8z"/>
</svg>
