<svg id="Layer_1" data-name="Layer 1" xmlns="http://www.w3.org/2000/svg" viewBox="0 0 29.73 31.24"><defs><style>.cls-1{fill:#3b3c3b;stroke:#3b3c3b;}.cls-1,.cls-2{stroke-miterlimit:10;}.cls-2{fill:#23aa53;stroke:#23aa53;}</style></defs><title>32</title><path class="cls-1" d="M19.89,29.87H5.33L4.13,8H23.51L23,16.76h.32a2.78,2.78,0,0,1,.58,0L24.41,8h1.08a.45.45,0,0,0,.45-.44V4.4A.45.45,0,0,0,25.49,4H19.37V1.33a.45.45,0,0,0-.45-.44H8.71a.44.44,0,0,0-.44.44V4H2.15a.45.45,0,0,0-.45.45V7.58A.45.45,0,0,0,2.15,8H3.23L4.46,30.33a.45.45,0,0,0,.45.42l16.83,0c-.13-.08-.9-.2-1-.29A3.46,3.46,0,0,1,19.89,29.87ZM9.16,1.77h9.31V4H9.16ZM2.6,7.14V4.84H25v2.3Z" transform="translate(-1.2 -0.39)"/><path class="cls-1" d="M9.22,25.88a.5.5,0,0,0,.45-.53V12.64a.49.49,0,0,0-.45-.52.49.49,0,0,0-.45.52h0V25.35A.5.5,0,0,0,9.22,25.88Z" transform="translate(-1.2 -0.39)"/><path class="cls-1" d="M13.66,25.88a.5.5,0,0,0,.45-.53V12.64a.49.49,0,0,0-.45-.52.49.49,0,0,0-.45.52h0V25.35A.5.5,0,0,0,13.66,25.88Z" transform="translate(-1.2 -0.39)"/><path class="cls-1" d="M17.78,19.25a.66.66,0,0,1,.55-.43V12.57a.36.36,0,1,0-.71,0v7C17.67,19.49,17.72,19.37,17.78,19.25Z" transform="translate(-1.2 -0.39)"/><path class="cls-2" d="M19.54,29.23,18.8,30a4.41,4.41,0,0,0,1.05.38l.67-.8C19.54,29.23,20.49,29.56,19.54,29.23Z" transform="translate(-1.2 -0.39)"/><path class="cls-2" d="M17.35,28.25l-.7.69c.93.43,0,0,.93.43l.73-.74Z" transform="translate(-1.2 -0.39)"/><path class="cls-2" d="M27.17,17.76a7.66,7.66,0,0,0-3.49-1.23,11.07,11.07,0,0,0-1.91.11c-.57.22-1.24.45-1.8.67a7.93,7.93,0,0,0-1.58,1.13A8.51,8.51,0,0,0,17,19.9a8.51,8.51,0,0,0-1.24,3.72L15,21.82l-.78.33,1.57,3.27,3.27-1.58-.34-.79-1.91.9A6.5,6.5,0,0,1,22,17.54a6.27,6.27,0,0,1,4.73.9A6,6,0,0,1,28,19.56a6.41,6.41,0,0,1,1.57,4.73,6.54,6.54,0,0,1-2.14,4.39,6.5,6.5,0,0,1-1.46.9,4.57,4.57,0,0,1-2,.56,7.69,7.69,0,0,1-1.77,0,1.15,1.15,0,0,0-.36-.1l-.65.71c.23.12,1,.26,1.08.3A7.75,7.75,0,0,0,28,29.35a7.46,7.46,0,0,0,2.47-5,11.19,11.19,0,0,0-.11-1.91A7.26,7.26,0,0,0,28.63,19,7.92,7.92,0,0,0,27.17,17.76Z" transform="translate(-1.2 -0.39)"/></svg>