<svg id="Layer_1" data-name="Layer 1" xmlns="http://www.w3.org/2000/svg" viewBox="0 0 27.21 30.11"><defs><style>.cls-1,.cls-2{fill:#231f20;}.cls-2{stroke:#231f20;stroke-miterlimit:10;stroke-width:0.5px;}</style></defs><title>32</title><path d="M24.42,30H4.54V2.39H18.9v5a.55.55,0,0,0,.55.55h5l0,13.17c.37,0,.69,0,1.06.05l0-13.77s0,0,0,0a.4.4,0,0,0,0-.15l0,0A.42.42,0,0,0,25.36,7L19.84,1.45a.42.42,0,0,0-.16-.11l-.05,0-.14,0H4a.55.55,0,0,0-.55.55V30.55a.56.56,0,0,0,.55.56H25c.3,0,0,.05,0-.25l-.71-.73M20,3.17l3.63,3.64H20Z" transform="translate(-3.44 -1.29)"/><path d="M7.86,9.67H21.12v1.1H7.86Z" transform="translate(-3.44 -1.29)"/><path d="M7.86,6.35h4.42V7.46H7.86Z" transform="translate(-3.44 -1.29)"/><path d="M7.86,13H16.7v1.11H7.86Z" transform="translate(-3.44 -1.29)"/><path d="M17.8,13h3.32v1.11H17.8Z" transform="translate(-3.44 -1.29)"/><path d="M7.86,16.29H21.12V17.4H7.86Z" transform="translate(-3.44 -1.29)"/><path d="M7.86,22.92h8.76V24H7.86Z" transform="translate(-3.44 -1.29)"/><path d="M12.83,19.61h4.88v1.1H12.83Z" transform="translate(-3.44 -1.29)"/><path d="M7.86,19.61h3.87v1.1H7.86Z" transform="translate(-3.44 -1.29)"/><path d="M7.86,26.23h2.21v1.11H7.86Z" transform="translate(-3.44 -1.29)"/><path d="M11.18,26.23h5.74v1.11H11.18Z" transform="translate(-3.44 -1.29)"/><path d="M25.55,31.14H24.9a1,1,0,0,1-.95-.95V30a3.71,3.71,0,0,1-.65-.27l-.16.16a1,1,0,0,1-1.34,0l-.46-.46a1,1,0,0,1,0-1.35l.15-.15c-.1-.21-.19-.43-.27-.65H21a1,1,0,0,1-1-.95v-.65a1,1,0,0,1,1-1h.21a6.14,6.14,0,0,1,.27-.64l-.15-.16a1,1,0,0,1,0-1.35l.46-.45a.94.94,0,0,1,1.34,0l.16.15A3.71,3.71,0,0,1,24,22v-.22a1,1,0,0,1,.95-.95h.65a1,1,0,0,1,.95.95V22a4.06,4.06,0,0,1,.65.27l.15-.15a1,1,0,0,1,1.35,0l.46.45a1,1,0,0,1,0,1.35l-.16.16a3.61,3.61,0,0,1,.27.64h.22a1,1,0,0,1,.95,1v.65a1,1,0,0,1-.95.95h-.22a4.06,4.06,0,0,1-.27.65l.16.15a1,1,0,0,1,0,1.35l-.46.46a1,1,0,0,1-1.35,0l-.15-.16a4.06,4.06,0,0,1-.65.27v.22A1,1,0,0,1,25.55,31.14ZM23.4,29.06a3.17,3.17,0,0,0,.93.39.29.29,0,0,1,.22.29v.45a.35.35,0,0,0,.35.35h.65a.35.35,0,0,0,.34-.35v-.45a.3.3,0,0,1,.23-.29,3.17,3.17,0,0,0,.93-.39.3.3,0,0,1,.37.05l.31.32a.36.36,0,0,0,.49,0l.46-.46a.35.35,0,0,0,0-.49l-.32-.32a.31.31,0,0,1,0-.37,3.37,3.37,0,0,0,.38-.92.31.31,0,0,1,.3-.23h.44a.35.35,0,0,0,.35-.34v-.65a.35.35,0,0,0-.35-.35H29a.31.31,0,0,1-.3-.23,3.51,3.51,0,0,0-.38-.92.32.32,0,0,1,0-.37l.32-.32a.35.35,0,0,0,0-.49l-.46-.46a.36.36,0,0,0-.49,0l-.31.32a.3.3,0,0,1-.37.05,3.82,3.82,0,0,0-.93-.39.3.3,0,0,1-.23-.29v-.45a.34.34,0,0,0-.34-.34H24.9a.35.35,0,0,0-.35.34v.45a.29.29,0,0,1-.22.29,3.82,3.82,0,0,0-.93.39.3.3,0,0,1-.37-.05l-.31-.32a.36.36,0,0,0-.49,0l-.46.46a.34.34,0,0,0,0,.49l.31.32a.3.3,0,0,1,.05.37,3.51,3.51,0,0,0-.38.92.31.31,0,0,1-.3.23H21a.35.35,0,0,0-.35.35v.65a.34.34,0,0,0,.35.34h.44a.31.31,0,0,1,.3.23,3.37,3.37,0,0,0,.38.92.3.3,0,0,1-.05.37l-.31.32a.34.34,0,0,0,0,.49l.46.46a.34.34,0,0,0,.48,0l.32-.32a.32.32,0,0,1,.37-.05Z" transform="translate(-3.44 -1.29)"/><path d="M25.22,28.22A2.25,2.25,0,1,1,27.47,26,2.25,2.25,0,0,1,25.22,28.22Zm0-3.89A1.64,1.64,0,1,0,26.87,26a1.64,1.64,0,0,0-1.65-1.64Z" transform="translate(-3.44 -1.29)"/></svg>