<?xml version="1.0" encoding="utf-8"?>
<!-- Generator: Adobe Illustrator 23.0.3, SVG Export Plug-In . SVG Version: 6.00 Build 0)  -->
<svg version="1.1" id="Layer_1" xmlns="http://www.w3.org/2000/svg" xmlns:xlink="http://www.w3.org/1999/xlink" x="0px" y="0px"
	 viewBox="0 0 27 30.6" style="enable-background:new 0 0 27 30.6;" xml:space="preserve">
<style type="text/css">
	.st0{fill:#3F96D1;stroke:#3F96D1;stroke-width:0.5;stroke-miterlimit:10;}
	.st1{fill:#F15A29;}
</style>
<title>32</title>
<path class="st0" d="M19.9,28.2L3,28V2.4h13.3V7c0,0.3,0.2,0.5,0.5,0.5l0,0h4.6L21.5,20c0.4,0,0.6-0.1,0.9-0.1V7l0,0V6.9l0,0
	c0-0.1,0-0.2-0.1-0.2l-5.2-5.2l-0.2-0.1l0,0l-0.1-0.1H2.4C2.3,1.4,2,1.6,2,1.9v26.7c0,0.3,0.3,0.5,0.6,0.5H22
	c0.3,0.1,0.7,0.1,0.8-0.2l0,0l-0.1-0.1 M17.4,3.1l3.3,3.3h-3.3V3.1z"/>
<path class="st0" d="M6,9.2h12.3v1H6V9.2z"/>
<path class="st0" d="M6,6.1h4.1v1H6V6.1z"/>
<path class="st0" d="M6,12.2h8.2v1H6V12.2z"/>
<path class="st0" d="M15.3,12.2h3v1h-3C15.3,13.3,15.3,12.2,15.3,12.2z"/>
<path class="st0" d="M6,15.3h12.3v1H6V15.3z"/>
<path class="st0" d="M6,21.5h8.1v1H6V21.5z"/>
<path class="st0" d="M10.7,18.4h4.5v1h-4.5V18.4z"/>
<path class="st0" d="M6,18.4h3.6v1H6V18.4z"/>
<path class="st0" d="M6,24.5h2v1H6V24.5z"/>
<path class="st0" d="M9.2,24.5h5.4v1H9.2V24.5z"/>
<path class="st1" d="M26.5,23.1c0.8,2.4-0.4,5.1-2.9,6c-1.8,0.6-3.9,0.1-5.1-1.4l0.7-0.6c1.3,1.5,3.7,1.8,5.2,0.5
	c1.5-1.3,1.8-3.7,0.5-5.2c-0.9-1.1-2.8-1.5-4.2-1.1l1.2,0.8l-0.8,1.2l-2.3-1.9l1.4-3.1l1.2,0.6l-0.8,1.2
	C23,19.5,25.6,20.8,26.5,23.1z"/>
<path class="st1" d="M17.5,26.2l1-0.2l0.1,0.4l0.2,0.4l-0.9,0.4"/>
<path class="st1" d="M18.5,25.6l-1.1,0.2v-0.5c0-0.2,0-0.3,0-0.5h1.1c0,0.1,0,0.2,0,0.4C18.5,25.3,18.5,25.4,18.5,25.6z"/>
</svg>
