<svg id="Layer_1" data-name="Layer 1" xmlns="http://www.w3.org/2000/svg" viewBox="0 0 9.127 14.88"><defs><style>.cls-1{fill:#010101;}</style></defs><title>Question mark</title><circle class="cls-1" cx="4.563" cy="14.299" r="0.581"/><path class="cls-1" d="M12.685,4.987a4.563,4.563,0,0,0-9.125.036.582.582,0,0,0,1.163,0,3.4,3.4,0,0,1,6.8,0v.031a3.4,3.4,0,0,1-2.067,3.1,3.17,3.17,0,0,0-1.915,2.93v1.35a.581.581,0,1,0,1.162,0v-1.35A2.011,2.011,0,0,1,9.913,9.223a4.56,4.56,0,0,0,2.774-4.2Z" transform="translate(-3.56 -0.46)"/></svg>