<?xml version="1.0" encoding="utf-8"?>
<!-- Generator: Adobe Illustrator 23.0.0, SVG Export Plug-In . SVG Version: 6.00 Build 0)  -->
<svg version="1.1" id="Layer_1" xmlns="http://www.w3.org/2000/svg" xmlns:xlink="http://www.w3.org/1999/xlink" x="0px" y="0px"
	 viewBox="0 0 32 32" style="enable-background:new 0 0 32 32;" xml:space="preserve">
<!-- <style type="text/css"> -->
	<!-- .st0{fill:url(#SVGID_1_);} -->
	<!-- .st1{opacity:0.5;fill:url(#SVGID_2_);} -->
	<!-- .st2{fill:url(#SVGID_3_);} -->
	<!-- .st3{fill:url(#SVGID_4_);} -->
	<!-- .st4{fill:url(#SVGID_5_);} -->
<!-- </style> -->
<g>
	<linearGradient id="SVGID_1_" gradientUnits="userSpaceOnUse" x1="0.3758" y1="16" x2="31.6242" y2="16">
		<stop  offset="0" style="stop-color:#2A8BC6"/>
		<stop  offset="0.7453" style="stop-color:#1A3172"/>
	</linearGradient>
	<path d="M31.62,15.38C31.62,24,24.63,31,16,31C7.37,31,0.38,24,0.38,15.38c0-6.39,3.84-11.89,9.34-14.31v5.98
		c-2.52,1.9-4.14,4.92-4.14,8.32c0,5.76,4.67,10.43,10.43,10.43c5.76,0,10.43-4.67,10.43-10.43c0-3.47-1.69-6.54-4.3-8.44V1
		C27.71,3.38,31.62,8.92,31.62,15.38z"/>
	<linearGradient id="SVGID_2_" gradientUnits="userSpaceOnUse" x1="4.8757" y1="16.851" x2="27.1243" y2="16.851">
		<stop  offset="0" style="stop-color:#2A8BC6"/>
		<stop  offset="0.5039" style="stop-color:#1A3172"/>
		<stop  offset="0.5791" style="stop-color:#1B3475"/>
		<stop  offset="0.6685" style="stop-color:#1C3D7C"/>
		<stop  offset="0.765" style="stop-color:#1F4D8A"/>
		<stop  offset="0.8666" style="stop-color:#24629D"/>
		<stop  offset="0.9712" style="stop-color:#2980BA"/>
		<stop  offset="1" style="stop-color:#2A8BC6"/>
	</linearGradient>
	<path d="M27.12,15.93c0,6.14-4.98,11.12-11.12,11.12c-6.14,0-11.12-4.98-11.12-11.12c0-3.81,1.92-7.17,4.84-9.18v0.3
		c-2.52,1.9-4.14,4.92-4.14,8.32c0,5.76,4.67,10.43,10.43,10.43c5.76,0,10.43-4.67,10.43-10.43c0-3.47-1.69-6.54-4.3-8.44V6.65
		C25.14,8.64,27.12,12.05,27.12,15.93z"/>
	<linearGradient id="SVGID_3_" gradientUnits="userSpaceOnUse" x1="15.9881" y1="19.385" x2="15.9881" y2="23.4469">
		<stop  offset="0" style="stop-color:#2A8BC6"/>
		<stop  offset="0.7453" style="stop-color:#1A3172"/>
	</linearGradient>
	<rect x="15.32" y="19.38" width="1.33" height="4.06"/>
	<linearGradient id="SVGID_4_" gradientUnits="userSpaceOnUse" x1="24.4499" y1="15.3147" x2="7.5501" y2="15.3147">
		<stop  offset="0" style="stop-color:#2A8BC6"/>
		<stop  offset="0.1156" style="stop-color:#266EA9"/>
		<stop  offset="0.2609" style="stop-color:#215390"/>
		<stop  offset="0.3933" style="stop-color:#1D417F"/>
		<stop  offset="0.507" style="stop-color:#1B3575"/>
		<stop  offset="0.5888" style="stop-color:#1A3172"/>
	</linearGradient>
	<path d="M24.45,15.65c0,3.49-2.12,6.49-5.14,7.78V20.2c1.4-1.02,2.32-2.68,2.32-4.55c0-3.11-2.52-5.63-5.63-5.63
		c-3.11,0-5.63,2.52-5.63,5.63c0,1.84,0.89,3.48,2.26,4.51v3.24c-2.99-1.3-5.08-4.28-5.08-7.75c0-4.67,3.78-8.45,8.45-8.45
		C20.67,7.2,24.45,10.99,24.45,15.65z"/>
	<linearGradient id="SVGID_5_" gradientUnits="userSpaceOnUse" x1="20.2704" y1="15.4826" x2="11.7296" y2="15.4826">
		<stop  offset="0" style="stop-color:#2A8BC6"/>
		<stop  offset="0.1156" style="stop-color:#266EA9"/>
		<stop  offset="0.2609" style="stop-color:#215390"/>
		<stop  offset="0.3933" style="stop-color:#1D417F"/>
		<stop  offset="0.507" style="stop-color:#1B3575"/>
		<stop  offset="0.5888" style="stop-color:#1A3172"/>
	</linearGradient>
	<path d="M20.27,15.65c0,1.77-1.07,3.28-2.6,3.93v-1.56c0.74-0.52,1.23-1.39,1.23-2.37c0-1.6-1.3-2.9-2.9-2.9
		c-1.6,0-2.9,1.3-2.9,2.9c0,0.95,0.46,1.79,1.17,2.32v1.58c-1.49-0.66-2.54-2.16-2.54-3.9c0-2.36,1.91-4.27,4.27-4.27
		C18.36,11.38,20.27,13.29,20.27,15.65z"/>
</g>
</svg>
